<svg width="512" height="512" viewBox="0 0 512 512" fill="none" xmlns="http://www.w3.org/2000/svg">
<rect width="512" height="512" fill="#1779BA"/>
<path d="M469.333 270.222C467.462 270.233 465.606 269.874 463.873 269.166C462.14 268.459 460.564 267.416 459.235 266.098L256 62.7199L52.7644 266.098C50.0437 268.428 46.5439 269.645 42.9645 269.507C39.3851 269.369 35.9897 267.885 33.4568 265.352C30.9239 262.819 29.4401 259.424 29.3018 255.844C29.1636 252.265 30.3811 248.765 32.7111 246.044L246.044 32.711C248.709 30.0621 252.314 28.5753 256.071 28.5753C259.828 28.5753 263.433 30.0621 266.098 32.711L479.431 246.044C481.388 248.041 482.713 250.57 483.241 253.316C483.769 256.061 483.476 258.901 482.398 261.481C481.321 264.061 479.507 266.266 477.183 267.821C474.859 269.375 472.129 270.211 469.333 270.222Z" fill="white"/>
<path d="M256 110.791L85.3333 282.027V455.111C85.3333 462.655 88.3302 469.89 93.6645 475.224C98.9989 480.559 106.234 483.555 113.778 483.555H213.333V341.333H298.667V483.555H398.222C405.766 483.555 413.001 480.559 418.335 475.224C423.67 469.89 426.667 462.655 426.667 455.111V281.031L256 110.791Z" fill="white"/>
</svg>
